<?xml version="1.0" encoding="utf-8"?>
<!-- Generator: Adobe Illustrator 25.4.1, SVG Export Plug-In . SVG Version: 6.00 Build 0)  -->
<svg version="1.1" id="Layer_1" xmlns="http://www.w3.org/2000/svg" xmlns:xlink="http://www.w3.org/1999/xlink" x="0px" y="0px"
	 viewBox="0 0 450.7 313.5" style="enable-background:new 0 0 450.7 313.5;" xml:space="preserve">
<style type="text/css">
	.st0{fill:#9EC0FF;}
	.st1{fill:#5181DB;}
	.st2{fill:#FFFFFF;}
	.st3{fill:none;stroke:#9EC0FF;stroke-width:0.7631;stroke-miterlimit:10;}
	.st4{fill:none;stroke:#89A4D9;stroke-miterlimit:10;}
	.st5{fill:#FD8D0A;}
	.st6{fill:#89A4D9;}
	.st7{fill:none;stroke:#FFFFFF;stroke-width:1.1497;stroke-miterlimit:10;}
	.st8{fill:none;stroke:#FFFFFF;stroke-miterlimit:10;}
	.st9{fill:none;stroke:#B8D0FF;stroke-miterlimit:10;}
	.st10{fill:none;stroke:#2E6ADB;stroke-width:2;stroke-miterlimit:10;}
	.st11{fill:#B8D0FF;}
	.st12{fill:none;stroke:#89A4D9;stroke-width:0.8758;stroke-miterlimit:10;}
	.st13{fill:none;stroke:#89A4D9;stroke-width:0.759;stroke-miterlimit:10;}
	.st14{fill:none;stroke:#FFFFFF;stroke-width:0.8758;stroke-miterlimit:10;}
	.st15{fill:none;stroke:#FFFFFF;stroke-width:0.75;stroke-linecap:round;stroke-linejoin:round;stroke-miterlimit:10;}
	.st16{fill:#141D30;}
	.st17{fill:#26395E;}
	.st18{fill:#DEDEDE;}
	.st19{fill:#ABABAB;}
	.st20{fill:#142F61;}
	.st21{fill:none;stroke:#141D30;stroke-width:0.7631;stroke-miterlimit:10;}
	.st22{fill:#496EB5;}
	.st23{fill:none;stroke:#496EB5;stroke-width:0.6883;stroke-miterlimit:10;}
	.st24{fill:#FF8C8C;}
	.st25{fill:#D45151;}
	.st26{fill:none;stroke:#D45151;stroke-miterlimit:10;}
	.st27{fill:#125EC9;}
	.st28{fill:none;stroke:#FF8C8C;stroke-width:0.7091;stroke-miterlimit:10;}
	.st29{fill:none;stroke:#142F61;stroke-width:0.75;stroke-miterlimit:10;}
	.st30{fill:none;stroke:#142F61;stroke-miterlimit:10;}
	.st31{fill:#0E4899;}
</style>
<g>
	<g>
		<g>
			<g>
				<rect x="345.4" y="113.7" class="st0" width="63.4" height="43.2"/>
				<polygon class="st1" points="401.8,166.3 397.5,163.4 393.2,166.3 393.2,150.8 401.8,150.8 				"/>
				<circle class="st1" cx="397.5" cy="150.1" r="6.3"/>
				
					<ellipse transform="matrix(0.1602 -0.9871 0.9871 0.1602 186.6222 517.6887)" class="st2" cx="397.5" cy="149.2" rx="6.3" ry="6.3"/>
				<path class="st3" d="M402,149.2c0,2.5-2,4.4-4.4,4.4c-2.5,0-4.4-2-4.4-4.4c0-2.5,2-4.4,4.4-4.4C400,144.7,402,146.7,402,149.2z"
					/>
				<line class="st4" x1="350.5" y1="128.6" x2="402" y2="128.6"/>
				<line class="st4" x1="364.4" y1="124.6" x2="388.1" y2="124.6"/>
				<line class="st4" x1="350.5" y1="132.6" x2="402" y2="132.6"/>
				<line class="st4" x1="350.5" y1="136.6" x2="402" y2="136.6"/>
				<line class="st4" x1="350.5" y1="140.6" x2="402" y2="140.6"/>
				<line class="st4" x1="365.2" y1="144.6" x2="387.3" y2="144.6"/>
			</g>
			<g>
				<rect x="371" y="182.9" class="st5" width="10.2" height="49.4"/>
				<rect x="358.5" y="192" class="st0" width="10.2" height="40.3"/>
				<rect x="346" y="186.6" class="st6" width="10.2" height="45.7"/>
				<rect x="333.6" y="207.1" class="st1" width="10.2" height="25.2"/>
				<rect x="321.1" y="218.9" class="st2" width="10.2" height="13.4"/>
				<polyline class="st7" points="386.8,234.9 318.8,234.9 318.8,181.3 				"/>
			</g>
			<g>
				<path class="st0" d="M375.7,36.6c-19.1,0-34.5,15.4-34.5,34.5c0,19.1,15.4,34.5,34.5,34.5c19.1,0,34.5-15.4,34.5-34.5
					C410.2,52,394.7,36.6,375.7,36.6z M375.7,99.8c-15.9,0-28.8-12.9-28.8-28.8c0-15.9,12.9-28.8,28.8-28.8s28.8,12.9,28.8,28.8
					C404.4,87,391.6,99.8,375.7,99.8z"/>
				<g>
					<path class="st0" d="M376.9,45.9c0,0.8-0.6,1.4-1.4,1.4s-1.4-0.6-1.4-1.4s0.6-1.4,1.4-1.4S376.9,45.2,376.9,45.9z"/>
					<path class="st0" d="M376.9,96.2c0,0.8-0.6,1.4-1.4,1.4s-1.4-0.6-1.4-1.4c0-0.8,0.6-1.4,1.4-1.4S376.9,95.5,376.9,96.2z"/>
					<path class="st0" d="M364.2,48.7c0.4,0.7,0.2,1.5-0.5,1.9c-0.7,0.4-1.5,0.2-1.9-0.5c-0.4-0.7-0.2-1.5,0.5-1.9
						C362.9,47.8,363.8,48,364.2,48.7z"/>
					<path class="st0" d="M389.3,92.2c0.4,0.7,0.2,1.5-0.5,1.9c-0.7,0.4-1.5,0.2-1.9-0.5c-0.4-0.7-0.2-1.5,0.5-1.9
						C388.1,91.3,388.9,91.6,389.3,92.2z"/>
					<path class="st0" d="M354.5,57.4c0.7,0.4,0.9,1.2,0.5,1.9s-1.2,0.9-1.9,0.5c-0.7-0.4-0.9-1.2-0.5-1.9
						C353,57.2,353.8,57,354.5,57.4z"/>
					<path class="st0" d="M398.1,82.6c0.7,0.4,0.9,1.2,0.5,1.9c-0.4,0.7-1.2,0.9-1.9,0.5c-0.7-0.4-0.9-1.2-0.5-1.9
						C396.6,82.4,397.4,82.2,398.1,82.6z"/>
					<path class="st0" d="M350.5,69.8c0.8,0,1.4,0.6,1.4,1.4c0,0.8-0.6,1.4-1.4,1.4c-0.8,0-1.4-0.6-1.4-1.4
						C349.1,70.4,349.8,69.8,350.5,69.8z"/>
					<path class="st0" d="M400.9,69.8c0.8,0,1.4,0.6,1.4,1.4c0,0.8-0.6,1.4-1.4,1.4c-0.8,0-1.4-0.6-1.4-1.4
						C399.4,70.4,400.1,69.8,400.9,69.8z"/>
					<path class="st0" d="M353.3,82.5c0.7-0.4,1.5-0.2,1.9,0.5c0.4,0.7,0.2,1.5-0.5,1.9c-0.7,0.4-1.5,0.2-1.9-0.5
						C352.4,83.8,352.6,82.9,353.3,82.5z"/>
					<path class="st0" d="M396.9,57.3c0.7-0.4,1.5-0.2,1.9,0.5c0.4,0.7,0.2,1.5-0.5,1.9c-0.7,0.4-1.5,0.2-1.9-0.5
						C395.9,58.6,396.2,57.7,396.9,57.3z"/>
					<path class="st0" d="M362,92.2c0.4-0.7,1.2-0.9,1.9-0.5c0.7,0.4,0.9,1.2,0.5,1.9c-0.4,0.7-1.2,0.9-1.9,0.5
						C361.8,93.7,361.6,92.8,362,92.2z"/>
					<path class="st0" d="M387.2,48.6c0.4-0.7,1.2-0.9,1.9-0.5c0.7,0.4,0.9,1.2,0.5,1.9c-0.4,0.7-1.2,0.9-1.9,0.5
						C387,50.1,386.8,49.2,387.2,48.6z"/>
				</g>
				<polyline class="st8" points="375.7,49.3 375.7,71.1 362.9,79.3 				"/>
				<circle class="st0" cx="375.7" cy="71.1" r="2.4"/>
			</g>
			<g>
				<rect x="297.1" y="67.3" class="st2" width="57.4" height="69.4"/>
				<g>
					<line class="st9" x1="305.1" y1="76.2" x2="322.4" y2="76.2"/>
					<line class="st9" x1="305.1" y1="81.1" x2="346.4" y2="81.1"/>
					<line class="st9" x1="305.1" y1="86.1" x2="346.4" y2="86.1"/>
					<line class="st9" x1="305.1" y1="91" x2="346.4" y2="91"/>
					<line class="st9" x1="305.1" y1="96" x2="346.4" y2="96"/>
					<line class="st9" x1="305.1" y1="100.9" x2="346.4" y2="100.9"/>
					<line class="st9" x1="305.1" y1="105.8" x2="346.4" y2="105.8"/>
					<line class="st9" x1="305.1" y1="110.8" x2="346.4" y2="110.8"/>
					<line class="st9" x1="305.1" y1="115.7" x2="346.4" y2="115.7"/>
					<line class="st9" x1="305.1" y1="120.6" x2="346.4" y2="120.6"/>
					<line class="st9" x1="305.1" y1="125.6" x2="322.4" y2="125.6"/>
				</g>
				<path class="st10" d="M341.4,63.9V81c0,2.1-1.7,3.9-3.9,3.9l0,0c-2.1,0-3.9-1.7-3.9-3.9V63.2c0-3.3,2.6-5.9,5.9-5.9l0,0
					c3.3,0,5.9,2.6,5.9,5.9v4.1"/>
			</g>
			<g>
				<path class="st0" d="M148.6,47.2l16.7,1.7c1.1-10.8-3.9-21.9-13.7-28.1L142.7,35C147,37.7,149.1,42.5,148.6,47.2z"/>
				<path class="st5" d="M146.7,52.8c-3.8,6-11.8,7.9-17.8,4.1c-1.4-0.9-2.6-2-3.6-3.3l-13.5,9.9c2.2,3,4.9,5.6,8.2,7.6
					c13.9,8.7,32.2,4.5,40.9-9.3c2.5-4,4-8.4,4.4-12.8l-16.7-1.7C148.5,49.2,147.8,51.1,146.7,52.8z"/>
				<path class="st1" d="M111.8,63.4l13.5-9.9c-1.1-1.6-1.9-3.4-2.3-5.3l-16.5,3C107.4,55.7,109.2,59.8,111.8,63.4z"/>
				<path class="st6" d="M124.8,39.1c2.8-4.5,8-6.7,12.9-5.9l2.6-16.5c-11.4-1.8-23.2,3.2-29.7,13.5c-4.1,6.6-5.4,14.1-4.1,21.2
					l16.5-3C122.5,45.2,123,41.9,124.8,39.1z"/>
				<path class="st2" d="M137.8,33.2c1.7,0.3,3.4,0.9,4.9,1.8l8.9-14.2c-3.5-2.2-7.3-3.6-11.2-4.2L137.8,33.2z"/>
			</g>
			<g>
				<rect x="64.1" y="157.8" class="st2" width="64" height="84.6"/>
				<path class="st11" d="M74.7,233.4c-2.7-6-6.3-11.7-10.6-16.9v26h55C108,233.3,92.5,228.8,74.7,233.4z"/>
				<g>
					<line class="st9" x1="69.5" y1="205.8" x2="122.7" y2="205.8"/>
					<line class="st9" x1="69.5" y1="210.4" x2="122.7" y2="210.4"/>
					<line class="st9" x1="69.5" y1="215" x2="122.7" y2="215"/>
					<line class="st9" x1="69.5" y1="219.6" x2="122.7" y2="219.6"/>
					<line class="st9" x1="69.5" y1="224.2" x2="122.7" y2="224.2"/>
					<line class="st9" x1="69.5" y1="228.8" x2="122.7" y2="228.8"/>
				</g>
				<g>
					<g>
						<rect x="69.5" y="167.4" class="st11" width="11.3" height="6.4"/>
						<rect x="83.5" y="167.4" class="st11" width="11.3" height="6.4"/>
						<rect x="97.4" y="167.4" class="st11" width="11.3" height="6.4"/>
						<rect x="111.4" y="167.4" class="st11" width="11.3" height="6.4"/>
					</g>
					<g>
						<rect x="69.5" y="176.3" class="st11" width="11.3" height="6.4"/>
						<rect x="83.5" y="176.3" class="st11" width="11.3" height="6.4"/>
						<rect x="97.4" y="176.3" class="st11" width="11.3" height="6.4"/>
						<rect x="111.4" y="176.3" class="st11" width="11.3" height="6.4"/>
					</g>
					<g>
						<rect x="69.5" y="185.1" class="st11" width="11.3" height="6.4"/>
						<rect x="83.5" y="185.1" class="st11" width="11.3" height="6.4"/>
						<rect x="97.4" y="185.1" class="st11" width="11.3" height="6.4"/>
						<rect x="111.4" y="185.1" class="st11" width="11.3" height="6.4"/>
					</g>
					<g>
						<rect x="69.5" y="193.9" class="st11" width="11.3" height="6.4"/>
						<rect x="83.5" y="193.9" class="st11" width="11.3" height="6.4"/>
						<rect x="97.4" y="193.9" class="st11" width="11.3" height="6.4"/>
						<rect x="111.4" y="193.9" class="st11" width="11.3" height="6.4"/>
					</g>
				</g>
			</g>
			<g>
				<rect x="80.2" y="125.4" class="st6" width="91.6" height="3.5"/>
				<g>
					<polygon class="st2" points="137.8,128.8 71.7,128.8 62.3,84.8 128.4,84.8 					"/>
					<line class="st12" x1="126.3" y1="85.8" x2="135.4" y2="128.8"/>
					<path class="st13" d="M105.8,106.3c0.7,3.5-1.9,6.3-5.8,6.3c-4,0-7.8-2.8-8.5-6.3c-0.7-3.5,1.9-6.3,5.8-6.3
						S105.1,102.8,105.8,106.3z"/>
				</g>
			</g>
			<g>
				<path class="st0" d="M88.9,50.2H50c-4.2,0-7.6,3.4-7.6,7.6v17.4c0,4.2,3.4,7.6,7.6,7.6h10.5c2.1,0,4,1.4,4.6,3.5l4.5,16.8
					l4.5-16.8c0.5-2.1,2.4-3.5,4.6-3.5h10.5c4.2,0,7.6-3.4,7.6-7.6V57.9C96.6,53.6,93.2,50.2,88.9,50.2z"/>
				<g>
					<rect x="56.7" y="58.4" class="st14" width="27.6" height="18.3"/>
					<g>
						<polyline class="st14" points="58.6,60.3 70.5,69.2 82.3,60.3 						"/>
						<line class="st14" x1="72.8" y1="67.5" x2="82.3" y2="74.7"/>
						<line class="st14" x1="58.6" y1="74.7" x2="68.2" y2="67.5"/>
					</g>
				</g>
				<g>
					<path class="st5" d="M62.7,58.4c0,2.9-2.4,5.3-5.3,5.3s-5.3-2.4-5.3-5.3c0-2.9,2.4-5.3,5.3-5.3S62.7,55.4,62.7,58.4z"/>
					<polyline class="st15" points="54.2,57.8 56.7,60 60.6,56.7 					"/>
				</g>
			</g>
			<g>
				<polygon class="st1" points="287.7,30.6 291.7,52.7 328.3,52.7 324.3,30.6 				"/>
				<rect x="291.8" y="23.6" class="st2" width="36.1" height="29.1"/>
				<polygon class="st0" points="314.4,27.4 310.5,32.4 295.2,32.4 291.8,52.7 328.5,52.7 332.8,27.4 				"/>
			</g>
			
				<ellipse transform="matrix(0.7071 -0.7071 0.7071 0.7071 -82.324 74.5451)" class="st5" cx="48.8" cy="136.6" rx="8.3" ry="8.3"/>
			
				<ellipse transform="matrix(0.2287 -0.9735 0.9735 0.2287 243.9252 356.5034)" class="st5" cx="346.9" cy="24.3" rx="8.3" ry="8.3"/>
			
				<ellipse transform="matrix(0.2309 -0.973 0.973 0.2309 125.104 534.8467)" class="st5" cx="400.9" cy="188.3" rx="8.3" ry="8.3"/>
			
				<ellipse transform="matrix(0.7071 -0.7071 0.7071 0.7071 -20.5514 134.5421)" class="st5" cx="152.1" cy="92.1" rx="8.3" ry="8.3"/>
			
				<ellipse transform="matrix(0.7822 -0.623 0.623 0.7822 -136.9617 206.4428)" class="st5" cx="226.8" cy="299.1" rx="8.3" ry="8.3"/>
		</g>
		<g>
			<g>
				<circle class="st8" cx="225.7" cy="56.8" r="50.7"/>
				<ellipse transform="matrix(0.9178 -0.397 0.397 0.9178 -3.982 94.288)" class="st8" cx="225.7" cy="56.8" rx="44.4" ry="44.4"/>
			</g>
			<g>
				<polygon class="st16" points="225.7,169.8 140.4,186.9 225.7,240.5 311,186.9 				"/>
				<path class="st17" d="M267.6,171.6l-3.1-6.3L281,92.6l-42.6-12.8h-12.7H213l-42.6,12.8l16.4,72.7l-3.1,6.3l-17,9.3l39.5,28.2
					c5.9,3.5,13.5,0.4,15.3-6.2l4.1-15.3l4.1,15.3c1.8,6.6,9.4,9.7,15.3,6.2l39.5-28.2L267.6,171.6z"/>
				<polygon class="st18" points="213,81.5 238.4,81.5 225.7,142.9 				"/>
				<polygon class="st19" points="213.3,82.9 230.2,141.7 222.6,146.8 				"/>
				<path class="st16" d="M257.9,102c0,0-8-14.2-19.5-20.6l-12.7,61.5L213,81.5c-11.6,6.4-19.5,20.6-19.5,20.6l11.5,6.7l-11.5-0.2
					c0,0,10.2,23.1,34.9,45c6.3-7.1,21.8-25.8,29.5-45l-11.5,0.2L257.9,102z"/>
				<polygon class="st2" points="214,76.7 237.4,76.7 225.7,87.8 				"/>
				<path class="st20" d="M238.4,56.5c0,0,1.5-5.4,2.5-10.2c1-4.7-1.3-7-3.1-7.8c-1.6-8.4-7.4-12-13.1-12c-0.5,0-0.7,0.7-0.3,0.9
					c2.2,1.4,3,3.4,3,3.4s-7.4-1.7-14.6,2.5c-7.2,4.2-5.9,7.4-2.5,9.3c0,0,0.3,6.7,2.2,13.5L238.4,56.5z"/>
				<path class="st21" d="M225.7,142.9c2,10,6.3,20.9,6.3,20.9l-5.7,22"/>
				<circle class="st18" cx="225.8" cy="163.6" r="2.3"/>
				<path class="st18" d="M223.3,184.6c0,1.3-1,2.3-2.3,2.3c-1.3,0-2.3-1-2.3-2.3c0-1.3,1-2.3,2.3-2.3
					C222.3,182.2,223.3,183.3,223.3,184.6z"/>
				<line class="st21" x1="215.8" y1="150.3" x2="227" y2="160.2"/>
				<line class="st21" x1="224.6" y1="167.2" x2="216.6" y2="172.3"/>
				<g>
					
						<rect x="189.3" y="175.2" transform="matrix(0.9667 0.2559 -0.2559 0.9667 51.9002 -45.414)" class="st22" width="22.3" height="3.1"/>
					
						<rect x="239.8" y="175.2" transform="matrix(-0.9667 0.2559 -0.2559 -0.9667 538.7859 283.3125)" class="st22" width="22.3" height="3.1"/>
				</g>
				<g>
					<g>
						<polygon class="st2" points="257.6,247.3 273.7,256.4 270.6,275.8 250.2,263.7 						"/>
						<path class="st16" d="M268.7,252.6l1.1,15.3l-3.7-2.9l-7.4,6.4l7.9,5.2l6.2,16.3l2.7,10.1c0.4,1.3,2,1.8,3,0.8
							c2.3-2.2,5.4-6.5,5.7-13.4c0.4-11.1-1.9-20.1-1.9-20.1l2.9,0.5l1.1-13.1l-3.1-0.2C283.2,257.6,277.5,251.6,268.7,252.6z"/>
						<path class="st17" d="M121.7,202.9c3.1-15.8,24.8-22.3,45.3-11.2c20.6,11,95.4,52.7,95.4,52.7l-12.7,33.1
							c-8.2-2.7-9-6.5-15.5-8.9c-5.4-2-7,0.5-15.5-2.4c-8.6-2.9-11.3-6.1-16.3-7.8c-7.8-2.7-15.1-1.9-22.4-4.4
							c-12.2-4.1-22.7-7.7-28.1-9.6C130.4,236.7,118.7,218.7,121.7,202.9z"/>
						<path class="st16" d="M243.7,270.1l7.5-32c2.4,1.3,4.5,2.5,6.2,3.5L243.7,270.1z"/>
						<line class="st21" x1="257.5" y1="248.2" x2="179.2" y2="198.2"/>
						<line class="st23" x1="282.7" y1="258.9" x2="281.8" y2="268.6"/>
						<path class="st22" d="M249.8,277.4c-3.5-1.2-5.7-2.5-7.5-3.9l13.3-33c4.3,2.4,6.8,3.8,6.8,3.8L249.8,277.4z"/>
					</g>
					<path class="st16" d="M285.3,269l0.9-11.2l-3.1-0.2c0,0-5.6-5.9-14.4-4.9l0.1,1l-8.1-4.6l1.8-4.7c0,0-23.9-13.3-48.3-26.8
						L165,248.7c4.5,1.5,9.6,3.3,15.1,5.1c7.2,2.5,14.5,1.7,22.4,4.4c4.9,1.7,7.7,4.9,16.3,7.8c8.6,2.9,10.2,0.4,15.5,2.4
						c6.5,2.4,7.4,6.2,15.5,8.9l4.4-11.4l6.4,3.8l-1.9,1.7l7.9,5.2l0.2,0.6l15.5-6.9c0,0,0,0,0,0l0,0L285.3,269z"/>
					<path class="st17" d="M329.7,202.9c-3.1-15.8-24.8-22.3-45.3-11.2c-20.6,11-95.4,52.7-95.4,52.7l12.7,33.1
						c8.2-2.7,9-6.5,15.5-8.9c5.4-2,7,0.5,15.5-2.4c8.6-2.9,11.3-6.1,16.3-7.8c7.8-2.7,15.1-1.9,22.4-4.4
						c12.2-4.1,22.7-7.7,28.1-9.6C321.1,236.7,332.8,218.7,329.7,202.9z"/>
					<path class="st16" d="M207.7,270.1l-7.5-32c-2.4,1.3-4.5,2.5-6.2,3.5L207.7,270.1z"/>
					<line class="st21" x1="193.9" y1="248.2" x2="272.2" y2="198.2"/>
					<polygon class="st2" points="193.8,247.3 177.7,256.4 180.8,275.8 201.2,263.7 					"/>
					<path class="st16" d="M182.7,252.6l-1.1,15.3l3.7-2.9l7.4,6.4l-7.9,5.2l-6.2,16.3l-2.7,10.1c-0.4,1.3-2,1.8-3,0.8
						c-2.3-2.2-5.4-6.5-5.7-13.4c-0.4-11.1,1.9-20.1,1.9-20.1l-2.9,0.5l-1.1-13.1l3.1-0.2C168.2,257.6,173.9,251.6,182.7,252.6z"/>
					<line class="st23" x1="168.7" y1="258.9" x2="169.6" y2="268.6"/>
					<path class="st22" d="M201.6,277.4c3.5-1.2,5.7-2.5,7.5-3.9l-13.3-33c-4.3,2.4-6.8,3.8-6.8,3.8L201.6,277.4z"/>
				</g>
				<path class="st17" d="M170.4,92.6"/>
				<g>
					<path class="st19" d="M96.7,164.8c-4.3-2.3,4.5-22.8,4.5-22.8l7.4,3.2C108.6,145.2,100.9,167.2,96.7,164.8z"/>
					<path class="st24" d="M111.7,146.5l-16.2-7c0,0,1-4.7-2.7-8.3c-2.1-2-4.9-4-4.9-4l-1.7,1.5l2.9,3.4l-0.1,4.3l-7.8,0l-9.1-2.8
						l-0.7,2.2l-1-0.5l-1.1,3.2l1.9,1.2l-0.9,2.3l4,2.9l4.4,0.9l-5,0.1l-2.8-1.7l-0.6,1.7l3.5,2c0,0,8,3.1,17,1l14.8,12.5
						L111.7,146.5z"/>
					<path class="st25" d="M105.5,161.4l6.1-14.8l-12.6-5.4c1.1,4.4,1.1,9.3,0.3,15.1L105.5,161.4z"/>
					<path class="st16" d="M98.1,176.7c-3.7-2,2-13.1,2-13.1l12,5.1C112.1,168.8,102.2,178.9,98.1,176.7z"/>
					<path class="st2" d="M114.4,147.3l-9-3.5c0,0-2.6,18.7-8.8,21l17.7,11.2V147.3z"/>
					<path class="st16" d="M158.6,189.6c0.4-0.5,0.7-0.9,0.8-1.3c-16.1-5.4-31.4-0.6-36.4,10.5C132.6,206.1,150.9,197.9,158.6,189.6
						z"/>
					<path class="st17" d="M170.4,92.6l10.9,48.1l-13.5,36.7c-5.5,14.9-22.6,21.9-37,15l-32.7-15.6c0,0,7.9,2.1,16.3-29.4l22.3,9.6
						l24.2-45.7C160.9,111.2,160.9,103.1,170.4,92.6z"/>
					<line class="st21" x1="106.9" y1="168.1" x2="130.7" y2="179.8"/>
					<circle class="st18" cx="114.7" cy="166.3" r="1.6"/>
					<path class="st18" d="M125.7,171.4c0,0.9-0.7,1.6-1.6,1.6s-1.6-0.7-1.6-1.6s0.7-1.6,1.6-1.6S125.7,170.5,125.7,171.4z"/>
					<line class="st21" x1="136.7" y1="156.9" x2="151.1" y2="163.3"/>
					<line class="st21" x1="140.4" y1="156.3" x2="155.2" y2="156.9"/>
					<path class="st16" d="M173.8,107.5c-1,3.1-3.2,12.5-1.2,27.1c0.2,1.8,0.1,3.7-0.5,5.4c-3.4,10.2-0.9,19.9,0.5,24.1l8.6-23.4
						L173.8,107.5z"/>
					<polyline class="st26" points="71.4,135.9 80.5,139.2 83.7,139.4 					"/>
					<polyline class="st26" points="71.1,139.7 77.2,142.4 82.6,142.9 					"/>
					<line class="st26" x1="84.1" y1="138.2" x2="82.2" y2="145"/>
					<path class="st26" d="M83.7,144.3c2-1.6,5.7-3.3,9.1-1"/>
				</g>
				<g>
					<path class="st19" d="M354.7,164.8c4.3-2.3-4.5-22.8-4.5-22.8l-7.4,3.2C342.8,145.2,350.5,167.2,354.7,164.8z"/>
					<path class="st24" d="M339.8,146.5l16.2-7c0,0-1-4.7,2.7-8.3c2.1-2,4.9-4,4.9-4l1.7,1.5l-2.9,3.4l0.1,4.3l7.8,0l9.1-2.8
						l0.7,2.2l1-0.5l1.1,3.2l-1.9,1.2l0.9,2.3l-4,2.9l-4.4,0.9l5,0.1l2.8-1.7l0.6,1.7l-3.5,2c0,0-8,3.1-17,1l-14.8,12.5L339.8,146.5
						z"/>
					<path class="st25" d="M345.9,161.4l-6.1-14.8l12.6-5.4c-1.1,4.4-1.1,9.3-0.3,15.1L345.9,161.4z"/>
					<path class="st16" d="M353.3,176.7c3.7-2-2-13.1-2-13.1l-12,5.1C339.3,168.8,349.2,178.9,353.3,176.7z"/>
					<path class="st2" d="M337,147.3l9-3.5c0,0,2.6,18.7,8.8,21L337,176V147.3z"/>
					<path class="st16" d="M292.8,189.6c-0.4-0.5-0.7-0.9-0.8-1.3c16.1-5.4,31.4-0.6,36.4,10.5C318.8,206.1,300.5,197.9,292.8,189.6
						z"/>
					<path class="st17" d="M281,92.6l-10.9,48.1l13.5,36.7c5.5,14.9,22.6,21.9,37,15l32.7-15.6c0,0-7.9,2.1-16.3-29.4l-22.3,9.6
						l-24.2-45.7C290.5,111.2,290.5,103.1,281,92.6z"/>
					<line class="st21" x1="344.5" y1="168.1" x2="320.7" y2="179.8"/>
					<circle class="st18" cx="336.7" cy="166.3" r="1.6"/>
					<path class="st18" d="M325.7,171.4c0,0.9,0.7,1.6,1.6,1.6c0.9,0,1.6-0.7,1.6-1.6s-0.7-1.6-1.6-1.6
						C326.5,169.8,325.7,170.5,325.7,171.4z"/>
					<line class="st21" x1="314.7" y1="156.9" x2="300.4" y2="163.3"/>
					<line class="st21" x1="311" y1="156.3" x2="296.2" y2="156.9"/>
					<path class="st16" d="M277.6,107.5c1,3.1,3.2,12.5,1.2,27.1c-0.2,1.8-0.1,3.7,0.5,5.4c3.4,10.2,0.9,19.9-0.5,24.1l-8.6-23.4
						L277.6,107.5z"/>
					<polyline class="st26" points="380,135.9 370.9,139.2 367.7,139.4 					"/>
					<polyline class="st26" points="380.3,139.7 374.2,142.4 368.8,142.9 					"/>
					<line class="st26" x1="367.3" y1="138.2" x2="369.2" y2="145"/>
					<path class="st26" d="M367.7,144.3c-2-1.6-5.7-3.3-9.1-1"/>
				</g>
				<polygon class="st24" points="234.4,63.3 225.7,63.3 217,63.3 216.1,79.6 225.7,85.3 235.3,79.6 				"/>
				<polygon class="st27" points="228,89.8 223.3,89.8 221.1,82.4 230.2,82.4 				"/>
				<path class="st25" d="M229,74.7c1.5,0,3.7-0.4,5.9-1.4l-0.6-10h-8.7H217l-0.3,4.9C220.5,73.3,226.1,74.7,229,74.7z"/>
				<g>
					<g>
						<g>
							
								<ellipse transform="matrix(0.8881 -0.4596 0.4596 0.8881 -2.5727 104.0673)" class="st25" cx="212.5" cy="57.3" rx="3.7" ry="4.3"/>
							<path class="st28" d="M210.3,56.7c0.5-2.3,3-2.5,5.1,0.1"/>
						</g>
					</g>
					<g>
						<g>
							<path class="st25" d="M235.5,55.6c-1.1,2.1-0.5,4.6,1.3,5.6c1.8,1,4.2,0,5.3-2.1s0.5-4.6-1.3-5.6
								C239,52.5,236.6,53.5,235.5,55.6z"/>
							<path class="st28" d="M241,56.7c-0.5-2.3-3-2.5-5.1,0.1"/>
						</g>
					</g>
				</g>
				<path class="st24" d="M237.4,50.9c-1.5-1.7-2.2-4-1.8-6.3v0c0.1-1-0.6-1.8-1.6-1.8h-8.3h-8.3c-1,0-1.7,0.9-1.6,1.8l0,0
					c0.3,2.3-0.3,4.6-1.8,6.3l-1,1.2c0.7,14.5,9.2,17.7,12.7,17.7s12-3.2,12.7-17.7L237.4,50.9z"/>
				<g>
					<g>
						<path class="st29" d="M217.9,52.6c1.1,1.5,3.5,1.4,5.1-0.1"/>
						<path class="st30" d="M217.1,49.2c2-1.1,4.2-1.3,6.2,0"/>
					</g>
					<g>
						<path class="st29" d="M233.4,52.6c-1.1,1.5-3.5,1.4-5.1-0.1"/>
						<path class="st30" d="M234.3,49.2c-2-1.1-4.2-1.3-6.2,0"/>
					</g>
				</g>
				<polyline class="st26" points="225.1,51 225.1,56.4 227.5,55.9 				"/>
				<path class="st30" d="M221.5,58.1c0,0,3.3,2.3,8.3,0"/>
				<line class="st26" x1="224.2" y1="61.3" x2="227.1" y2="61.3"/>
				<g>
					<polygon class="st2" points="224.6,82.4 221.4,89 211.4,81.4 214,76.7 					"/>
					<polygon class="st2" points="226.8,82.4 229.9,89 240,81.4 237.4,76.7 					"/>
				</g>
				<g>
					<path class="st27" d="M228,89.8h-4.7c0,0,0.4,12.7,4.1,19.3c6.6,11.9,21.1,9.5,24.8,15c3.7,5.5,7.7,13.9,25.2,11.3l10.7-10.5
						l-11.1-5.1c0,0-7.6,3.2-12.6-2.5c-5-5.7-9.3-7.5-16.3-7.3C241,110.2,229.4,106.3,228,89.8z"/>
					<path class="st31" d="M228.7,94.3c-0.3-1.4-0.6-2.9-0.7-4.5h-4.7c0,0,0,0.1,0,0.4C224.9,91.2,227.2,92.7,228.7,94.3z"/>
				</g>
			</g>
		</g>
	</g>
</g>
</svg>
